<svg width="29" height="25" viewBox="0 0 29 25" fill="none" xmlns="http://www.w3.org/2000/svg">
<path d="M14.1686 24.0827C13.9821 24.0837 13.7973 24.048 13.6247 23.9775C13.4521 23.907 13.2951 23.8031 13.1627 23.6718L2.15523 12.6502C0.774489 11.255 0 9.37139 0 7.4085C0 5.44561 0.774489 3.562 2.15523 2.16683C3.54676 0.779222 5.43174 0 7.39689 0C9.36205 0 11.247 0.779222 12.6386 2.16683L14.1686 3.69683L15.6986 2.16683C17.0901 0.779222 18.9751 0 20.9402 0C22.9054 0 24.7904 0.779222 26.1819 2.16683C27.5626 3.562 28.3371 5.44561 28.3371 7.4085C28.3371 9.37139 27.5626 11.255 26.1819 12.6502L15.1744 23.6718C15.042 23.8031 14.885 23.907 14.7124 23.9775C14.5398 24.048 14.355 24.0837 14.1686 24.0827Z" fill="#1E1E1E"/>
</svg>
