<svg width="650" height="650" viewBox="0 0 650 650" fill="none" xmlns="http://www.w3.org/2000/svg">
<path d="M539.942 422.422C539.942 422.422 588.211 364.091 575.211 262.522C562.211 160.953 495.391 131.638 452.699 131.3C410.007 130.962 369.2 177.879 311.61 187.343C254.02 196.807 174.2 169.936 109.278 192.66C44.3561 215.384 38.7401 352.027 91.6501 405.834C144.56 459.641 256.854 457.522 323.7 444.015C390.546 430.508 490.75 484.497 539.942 422.422Z" fill="#8D1CFF"/>
<path opacity="0.7" d="M539.942 422.422C539.942 422.422 588.211 364.091 575.211 262.522C562.211 160.953 495.391 131.638 452.699 131.3C410.007 130.962 369.2 177.879 311.61 187.343C254.02 196.807 174.2 169.936 109.278 192.66C44.3561 215.384 38.7401 352.027 91.6501 405.834C144.56 459.641 256.854 457.522 323.7 444.015C390.546 430.508 490.75 484.497 539.942 422.422Z" fill="white"/>
<path d="M350.779 150.943C344.552 147.55 341.679 150.371 339.456 147.55C337.233 144.729 345.683 137.358 328.705 130.013C328.705 130.013 327.574 114.166 304.382 113.594C281.19 113.022 287.404 129.441 281.177 133.406C274.95 137.371 273.26 131.144 267.033 135.096C260.806 139.048 263.64 146.978 258.544 148.096C253.448 149.214 246.662 143.013 240.448 146.965C234.234 150.917 234.221 154.323 231.348 154.323C228.475 154.323 222.859 152.061 219.466 154.323C216.073 156.585 212.108 159.419 212.108 159.419H355.303C355.303 159.419 356.993 154.336 350.779 150.943Z" fill="#8D1CFF"/>
<path d="M350.779 150.943C344.552 147.55 341.679 150.371 339.456 147.55C337.233 144.729 345.683 137.358 328.705 130.013C328.705 130.013 327.574 114.166 304.382 113.594C281.19 113.022 287.404 129.441 281.177 133.406C274.95 137.371 273.26 131.144 267.033 135.096C260.806 139.048 263.64 146.978 258.544 148.096C253.448 149.214 246.662 143.013 240.448 146.965C234.234 150.917 234.221 154.323 231.348 154.323C228.475 154.323 222.859 152.061 219.466 154.323C216.073 156.585 212.108 159.419 212.108 159.419H355.303C355.303 159.419 356.993 154.336 350.779 150.943Z" fill="#8D1CFF"/>
<path opacity="0.7" d="M350.779 150.943C344.552 147.55 341.679 150.371 339.456 147.55C337.233 144.729 345.683 137.358 328.705 130.013C328.705 130.013 327.574 114.166 304.382 113.594C281.19 113.022 287.404 129.441 281.177 133.406C274.95 137.371 273.26 131.144 267.033 135.096C260.806 139.048 263.64 146.978 258.544 148.096C253.448 149.214 246.662 143.013 240.448 146.965C234.234 150.917 234.221 154.323 231.348 154.323C228.475 154.323 222.859 152.061 219.466 154.323C216.073 156.585 212.108 159.419 212.108 159.419H355.303C355.303 159.419 356.993 154.336 350.779 150.943Z" fill="white"/>
<path opacity="0.8" d="M524.433 211.9C521.001 210.015 519.441 211.588 518.193 210.015C516.945 208.442 521.625 204.399 512.252 200.33C512.252 200.33 511.628 191.581 498.81 191.23C485.992 190.879 489.437 199.979 486.005 202.176C482.573 204.373 481.624 200.876 478.205 203.112C474.786 205.348 476.333 209.612 473.512 210.301C470.691 210.99 466.947 207.48 463.515 209.664C460.083 211.848 460.083 213.733 458.51 213.733C456.937 213.733 453.83 212.433 452.01 213.733C450.19 215.033 447.941 216.541 447.941 216.541H527.007C527.007 216.541 527.878 213.707 524.433 211.9Z" fill="white"/>
<path opacity="0.8" d="M153.66 282.919C150.228 281.047 148.655 282.607 147.407 281.047C146.159 279.487 150.852 275.418 141.479 271.349C141.479 271.349 140.855 262.6 128.037 262.249C115.219 261.898 118.664 270.998 115.219 273.195C111.774 275.392 110.851 271.895 107.419 274.131C103.987 276.367 105.534 280.631 102.726 281.32C99.918 282.009 96.226 278.499 92.729 280.696C89.232 282.893 89.284 284.752 87.724 284.752C86.164 284.752 83.044 283.452 81.159 284.752C79.274 286.052 77.103 287.56 77.103 287.56H156.156C156.156 287.56 157.105 284.791 153.66 282.919Z" fill="white"/>
<path d="M329.017 397.189L326.924 180.7L369.629 180.284L368.381 404.313L329.017 397.189Z" fill="white" stroke="#263238" stroke-linecap="round" stroke-linejoin="round"/>
<path d="M332.072 185.198L332.41 273.598" stroke="#263238" stroke-width="0.75" stroke-linecap="round" stroke-linejoin="round"/>
<path d="M338.338 185.536V293.085" stroke="#263238" stroke-width="0.75" stroke-linecap="round" stroke-linejoin="round"/>
<path d="M345.293 185.198L345.995 294.476" stroke="#263238" stroke-width="0.75" stroke-linecap="round" stroke-linejoin="round"/>
<path d="M353.99 186.238V293.085" stroke="#263238" stroke-width="0.75" stroke-linecap="round" stroke-linejoin="round"/>
<path d="M361.998 186.589V372.801" stroke="#263238" stroke-width="0.75" stroke-linecap="round" stroke-linejoin="round"/>
<path d="M328.939 194.935L366.522 195.286" stroke="#263238" stroke-width="0.75" stroke-linecap="round" stroke-linejoin="round"/>
<path d="M329.29 208.858L366.184 209.898" stroke="#263238" stroke-width="0.75" stroke-linecap="round" stroke-linejoin="round"/>
<path d="M329.979 223.132L365.482 224.874" stroke="#263238" stroke-width="0.75" stroke-linecap="round" stroke-linejoin="round"/>
<path d="M329.628 237.406L366.184 239.837" stroke="#263238" stroke-width="0.75" stroke-linecap="round" stroke-linejoin="round"/>
<path d="M329.979 251.329L365.131 255.151" stroke="#263238" stroke-width="0.75" stroke-linecap="round" stroke-linejoin="round"/>
<path d="M369.629 180.284L402.714 180.7L400.205 382.122L368.381 404.313L369.629 180.284Z" fill="#263238" stroke="#263238" stroke-linecap="round" stroke-linejoin="round"/>
<path d="M399.308 185.536V293.085" stroke="white" stroke-width="0.75" stroke-linecap="round" stroke-linejoin="round"/>
<path d="M392.353 185.198L392.431 308.295" stroke="white" stroke-width="0.75" stroke-linecap="round" stroke-linejoin="round"/>
<path d="M383.656 186.238L383.825 312.806" stroke="white" stroke-width="0.75" stroke-linecap="round" stroke-linejoin="round"/>
<path d="M375.648 186.589V372.801" stroke="white" stroke-width="0.75" stroke-linecap="round" stroke-linejoin="round"/>
<path d="M401.843 194.857L371.124 195.286" stroke="white" stroke-width="0.75" stroke-linecap="round" stroke-linejoin="round"/>
<path d="M401.843 209.599L371.462 209.898" stroke="white" stroke-width="0.75" stroke-linecap="round" stroke-linejoin="round"/>
<path d="M402.662 223.106L372.164 224.874" stroke="white" stroke-width="0.75" stroke-linecap="round" stroke-linejoin="round"/>
<path d="M401.44 238.264L371.462 239.837" stroke="white" stroke-width="0.75" stroke-linecap="round" stroke-linejoin="round"/>
<path d="M401.44 252.187L372.515 255.151" stroke="white" stroke-width="0.75" stroke-linecap="round" stroke-linejoin="round"/>
<path d="M400.621 266.526L371.696 269.49" stroke="white" stroke-width="0.75" stroke-linecap="round" stroke-linejoin="round"/>
<path d="M400.621 279.214L370.877 283.816" stroke="white" stroke-width="0.75" stroke-linecap="round" stroke-linejoin="round"/>
<path d="M399.308 293.085L370.058 298.155" stroke="white" stroke-width="0.75" stroke-linecap="round" stroke-linejoin="round"/>
<path d="M367.484 109.2H364.585V154.856H367.484V109.2Z" fill="white" stroke="#263238" stroke-linecap="round" stroke-linejoin="round"/>
<path d="M347.607 162.851L347.464 151.918L383.292 152.49L383.578 163.579L347.607 162.851Z" fill="white" stroke="#263238" stroke-linecap="round" stroke-linejoin="round"/>
<path d="M367.172 163.137V152.49H383.292L383.578 163.579L367.172 163.137Z" fill="#263238" stroke="#263238" stroke-linecap="round" stroke-linejoin="round"/>
<path d="M326.924 180.7L335.712 170.651L369.629 170.235V180.284L326.924 180.7Z" fill="white" stroke="#263238" stroke-linecap="round" stroke-linejoin="round"/>
<path d="M369.629 170.235L395.174 171.067L402.714 180.7L369.629 180.284V170.235Z" fill="#263238" stroke="#263238" stroke-linecap="round" stroke-linejoin="round"/>
<path d="M335.712 170.651V163.111L369.616 162.851L369.629 170.235L335.712 170.651Z" fill="white" stroke="#263238" stroke-linecap="round" stroke-linejoin="round"/>
<path d="M369.616 162.851L395.226 163.722L395.174 171.067L369.629 170.235L369.616 162.851Z" fill="#263238" stroke="#263238" stroke-linecap="round" stroke-linejoin="round"/>
<path d="M498.368 370.682L523.822 376.402L525.733 326.144L545.454 317.226L572.819 323.596L571.545 405.041L586.183 407.589L584.909 541.814L513.006 518.947L455.104 501.761L498.368 370.682Z" fill="#263238"/>
<path d="M397.787 255.71L471.25 261.937L495.326 255.294L421.031 249.483L397.787 255.71Z" fill="white" stroke="#263238" stroke-linecap="round" stroke-linejoin="round"/>
<path d="M471.25 261.937L469.17 383.955L493.246 372.749L495.326 255.294L471.25 261.937Z" fill="#263238" stroke="#263238" stroke-linecap="round" stroke-linejoin="round"/>
<path d="M397.787 255.71L397.371 368.602L469.17 383.955L471.25 261.937L397.787 255.71Z" fill="white" stroke="#263238" stroke-linecap="round" stroke-linejoin="round"/>
<path d="M459.368 290.303L404.651 284.999V262.301L459.368 267.605V290.303Z" fill="#8D1CFF" stroke="#263238" stroke-miterlimit="10"/>
<path d="M412.116 278.301L411.107 269.896L412.234 270.009L412.839 275.985L413.609 270.146L414.623 270.247L415.398 276.241L415.933 270.378L417.065 270.492L416.116 278.7L414.863 278.575L414.13 272.982L413.37 278.426L412.116 278.301ZM417.407 278.83L418.582 270.664L420.24 270.83L421.49 279.238L420.32 279.121L420.123 277.623L418.793 277.49L418.615 278.95L417.407 278.83ZM418.915 276.491L419.992 276.598L419.439 272.383L419.421 272.381L418.915 276.491ZM422.24 279.313V271.03L423.223 271.128L424.97 276.273L424.881 274.005V271.294L426.009 271.407V279.69L425.12 279.601L423.326 274.278L423.396 276.459V279.429L422.24 279.313ZM427.681 279.857V272.666L426.717 272.569V271.477L429.859 271.792V272.884L428.932 272.791V279.982L427.681 279.857ZM430.566 280.145V271.862L433.329 272.139V273.226L431.821 273.075V275.485L433.254 275.628V276.692L431.821 276.548V279.184L433.385 279.34V280.427L430.566 280.145ZM434.312 280.52V272.237L436.162 272.422C436.58 272.464 436.916 272.582 437.169 272.777C437.422 272.968 437.604 273.228 437.717 273.556C437.832 273.885 437.89 274.273 437.89 274.722L437.895 278.459C437.895 279.002 437.835 279.448 437.717 279.797C437.601 280.143 437.414 280.391 437.155 280.541C436.896 280.691 436.551 280.744 436.12 280.701L434.312 280.52ZM435.567 279.667L435.979 279.708C436.126 279.723 436.248 279.705 436.345 279.655C436.445 279.605 436.518 279.508 436.565 279.362C436.615 279.213 436.64 278.999 436.64 278.72L436.635 274.629C436.635 274.206 436.584 273.896 436.48 273.701C436.377 273.506 436.196 273.395 435.937 273.369L435.567 273.332V279.667Z" fill="#263238"/>
<path d="M384.709 318.175L432.029 324.09L460.356 311.636L415.22 306.345L384.709 318.175Z" fill="white" stroke="#263238" stroke-linecap="round" stroke-linejoin="round"/>
<path d="M393.497 317.486L429.819 322.023L451.568 312.468L416.923 308.399L393.497 317.486Z" fill="white" stroke="#263238" stroke-width="0.75" stroke-linecap="round" stroke-linejoin="round"/>
<path d="M384.709 318.175L383.474 414.05L429.533 426.491L432.029 324.09L384.709 318.175Z" fill="white" stroke="#263238" stroke-linecap="round" stroke-linejoin="round"/>
<path d="M432.029 324.09L460.356 311.636L458.484 413.738L429.533 426.491L432.029 324.09Z" fill="#263238" stroke="#263238" stroke-linecap="round" stroke-linejoin="round"/>
<path d="M271.986 441.558L267.956 322.725L228.605 315.666L232.388 431.431L271.986 441.558Z" fill="white" stroke="#263238" stroke-linecap="round" stroke-linejoin="round"/>
<path d="M231.478 357.825L266.981 366.535" stroke="#263238" stroke-width="0.75" stroke-linecap="round" stroke-linejoin="round"/>
<path d="M233.22 362.011L267.332 370.708" stroke="#263238" stroke-width="0.75" stroke-linecap="round" stroke-linejoin="round"/>
<path d="M233.571 384.28L267.683 392.977" stroke="#263238" stroke-width="0.75" stroke-linecap="round" stroke-linejoin="round"/>
<path d="M231.829 380.796L267.332 390.195" stroke="#263238" stroke-width="0.75" stroke-linecap="round" stroke-linejoin="round"/>
<path d="M267.956 322.725L300.248 313.651L301.756 416.611L271.986 441.558L267.956 322.725Z" fill="#263238" stroke="#263238" stroke-linecap="round" stroke-linejoin="round"/>
<path d="M228.605 315.666L273.507 305.071L300.248 313.651L267.956 322.725L228.605 315.666Z" fill="white" stroke="#263238" stroke-linecap="round" stroke-linejoin="round"/>
<path d="M231.881 322.231L264.849 327.665L265.304 351.598L232.7 345.423L231.881 322.231Z" fill="#8D1CFF" stroke="#263238" stroke-linecap="round" stroke-linejoin="round"/>
<path d="M237.626 332.46L236.952 326.769L237.704 326.888L238.109 330.931L238.623 327.034L239.299 327.141L239.816 331.202L240.174 327.28L240.929 327.399L240.296 332.883L239.459 332.751L238.97 328.961L238.463 332.593L237.626 332.46ZM241.484 333.071V327.487L243.332 327.78V328.513L242.323 328.353V329.977L243.282 330.129V330.846L242.323 330.695V332.471L243.37 332.637V333.37L241.484 333.071ZM244.818 333.599L245.604 328.14L246.714 328.316L247.55 334.032L246.767 333.908L246.635 332.891L245.745 332.75L245.626 333.727L244.818 333.599ZM245.827 332.081L246.548 332.195L246.178 329.332L246.165 329.33L245.827 332.081ZM248.052 334.112V328.528L249.44 328.747C249.728 328.793 249.944 328.884 250.086 329.021C250.228 329.158 250.321 329.34 250.365 329.566C250.41 329.794 250.433 330.066 250.433 330.383C250.433 330.711 250.4 330.964 250.333 331.142C250.268 331.317 250.135 331.421 249.932 331.452C250.028 331.485 250.109 331.537 250.173 331.611C250.238 331.683 250.29 331.782 250.33 331.909C250.37 332.034 250.398 332.191 250.415 332.382C250.433 332.571 250.443 332.801 250.443 333.072C250.443 333.093 250.443 333.152 250.443 333.25C250.443 333.347 250.443 333.462 250.443 333.596C250.445 333.727 250.447 333.859 250.449 333.99C250.451 334.121 250.454 334.234 250.459 334.328C250.463 334.422 250.468 334.477 250.474 334.495L249.634 334.362C249.628 334.351 249.623 334.296 249.619 334.198C249.617 334.098 249.613 333.972 249.609 333.819C249.607 333.666 249.605 333.502 249.603 333.326C249.603 333.151 249.603 332.978 249.603 332.809C249.603 332.638 249.603 332.486 249.603 332.355C249.603 332.188 249.59 332.06 249.565 331.972C249.542 331.881 249.499 331.814 249.434 331.77C249.371 331.726 249.28 331.692 249.161 331.667L248.892 331.608V334.245L248.052 334.112ZM248.895 330.949L249.23 331.002C249.332 331.018 249.41 331.007 249.462 330.969C249.516 330.931 249.553 330.851 249.572 330.729C249.593 330.608 249.603 330.429 249.603 330.195V330.16C249.603 329.963 249.594 329.81 249.575 329.702C249.556 329.593 249.516 329.514 249.456 329.464C249.397 329.414 249.305 329.38 249.18 329.36L248.895 329.315V330.949ZM251.16 334.604V329.02L253.009 329.313V330.046L252 329.886V331.51L252.959 331.662V332.379L252 332.227V334.004L253.047 334.17V334.903L251.16 334.604Z" fill="#263238"/>
<path d="M237.537 341.676V336.092L238.377 336.225V338.484L239.129 338.603V336.344L239.968 336.477V342.061L239.129 341.928V339.333L238.377 339.214V341.809L237.537 341.676ZM240.815 342.195V336.611L241.654 336.744V342.328L240.815 342.195ZM242.5 342.462V336.878L243.889 337.098C244.177 337.144 244.392 337.235 244.534 337.372C244.676 337.509 244.769 337.69 244.813 337.917C244.859 338.145 244.882 338.417 244.882 338.734C244.882 339.062 244.849 339.315 244.782 339.492C244.717 339.668 244.583 339.772 244.381 339.803C244.477 339.835 244.557 339.888 244.622 339.962C244.687 340.034 244.739 340.133 244.779 340.26C244.818 340.385 244.847 340.542 244.863 340.733C244.882 340.922 244.891 341.152 244.891 341.423C244.891 341.444 244.891 341.503 244.891 341.601C244.891 341.698 244.891 341.813 244.891 341.947C244.894 342.078 244.896 342.209 244.898 342.341C244.9 342.472 244.903 342.585 244.907 342.679C244.911 342.772 244.917 342.828 244.923 342.846L244.083 342.713C244.077 342.702 244.072 342.647 244.067 342.549C244.065 342.449 244.062 342.323 244.058 342.17C244.056 342.017 244.054 341.853 244.052 341.677C244.052 341.501 244.052 341.329 244.052 341.16C244.052 340.989 244.052 340.837 244.052 340.706C244.052 340.539 244.039 340.411 244.014 340.323C243.991 340.232 243.947 340.165 243.882 340.121C243.82 340.077 243.729 340.043 243.61 340.017L243.34 339.959V342.596L242.5 342.462ZM243.343 339.299L243.679 339.353C243.781 339.369 243.858 339.358 243.911 339.32C243.965 339.282 244.002 339.202 244.02 339.08C244.041 338.958 244.052 338.78 244.052 338.546V338.511C244.052 338.314 244.042 338.161 244.023 338.052C244.005 337.944 243.965 337.864 243.904 337.815C243.846 337.765 243.754 337.731 243.629 337.711L243.343 337.666V339.299ZM245.628 342.958V337.374L246.468 337.507V343.091L245.628 342.958ZM247.314 343.225V337.641L247.972 337.745L249.141 341.281L249.081 339.748V337.921L249.836 338.041V343.625L249.241 343.53L248.041 339.872L248.088 341.346V343.348L247.314 343.225ZM251.704 343.978C251.372 343.925 251.105 343.75 250.902 343.454C250.699 343.155 250.598 342.708 250.598 342.111V339.684C250.598 339.434 250.621 339.215 250.667 339.026C250.715 338.836 250.788 338.682 250.886 338.562C250.987 338.441 251.116 338.357 251.275 338.313C251.434 338.266 251.625 338.26 251.848 338.296C252.091 338.334 252.288 338.402 252.441 338.501C252.593 338.597 252.71 338.721 252.792 338.874C252.875 339.024 252.933 339.203 252.964 339.408C252.995 339.614 253.011 339.844 253.011 340.098V340.495L252.227 340.371V339.787C252.227 339.535 252.201 339.352 252.149 339.238C252.099 339.124 252.003 339.056 251.861 339.034C251.704 339.009 251.596 339.054 251.535 339.169C251.474 339.282 251.444 339.497 251.444 339.812V342.233C251.444 342.584 251.469 342.839 251.519 343C251.571 343.158 251.679 343.25 251.842 343.276C252.001 343.301 252.113 343.242 252.177 343.098C252.244 342.952 252.278 342.697 252.278 342.333V341.581L251.855 341.514V340.895L253.011 341.078V344.127L252.635 344.068L252.506 343.499C252.46 343.684 252.362 343.817 252.212 343.899C252.063 343.982 251.894 344.008 251.704 343.978Z" fill="#263238"/>
<path d="M276.029 272.792L280.995 440.921L322.855 452.517L320.424 278.837L276.029 272.792Z" fill="white" stroke="#263238" stroke-linecap="round" stroke-linejoin="round"/>
<path d="M282.074 286.13L286.104 429.468" stroke="#263238" stroke-width="0.75" stroke-linecap="round" stroke-linejoin="round"/>
<path d="M281.827 277.576L281.957 281.853" stroke="#263238" stroke-width="0.75" stroke-linecap="round" stroke-linejoin="round"/>
<path d="M288.678 279.253L291.785 430.469" stroke="#263238" stroke-width="0.75" stroke-linecap="round" stroke-linejoin="round"/>
<path d="M295.633 280.917L297.791 432.471" stroke="#263238" stroke-width="0.75" stroke-linecap="round" stroke-linejoin="round"/>
<path d="M302.315 281.762L304.473 433.134" stroke="#263238" stroke-width="0.75" stroke-linecap="round" stroke-linejoin="round"/>
<path d="M309.543 283.985L311.48 436.15" stroke="#263238" stroke-width="0.75" stroke-linecap="round" stroke-linejoin="round"/>
<path d="M316.875 307.541L318.5 436.475" stroke="#263238" stroke-width="0.75" stroke-linecap="round" stroke-linejoin="round"/>
<path d="M316.641 284.154L316.81 301.431" stroke="#263238" stroke-width="0.75" stroke-linecap="round" stroke-linejoin="round"/>
<path d="M360.282 269.763L408.044 376.324V476.996L354.12 454.701L360.282 269.763Z" fill="#263238"/>
<path d="M385.034 336.05V367.692" stroke="white" stroke-width="0.75" stroke-linecap="round" stroke-linejoin="round"/>
<path d="M320.424 278.837L360.282 269.763V462.28L321.945 452.621L320.424 278.837Z" fill="#263238" stroke="#263238" stroke-linecap="round" stroke-linejoin="round"/>
<path d="M352.248 286.949L353.418 446.472" stroke="white" stroke-width="0.75" stroke-linecap="round" stroke-linejoin="round"/>
<path d="M352.196 277.134L352.222 281.853" stroke="white" stroke-width="0.75" stroke-linecap="round" stroke-linejoin="round"/>
<path d="M345.241 279.526L346.723 445.471" stroke="white" stroke-width="0.75" stroke-linecap="round" stroke-linejoin="round"/>
<path d="M338.559 281.06L339.521 445.471" stroke="white" stroke-width="0.75" stroke-linecap="round" stroke-linejoin="round"/>
<path d="M331.318 284.037L332.579 442" stroke="white" stroke-width="0.75" stroke-linecap="round" stroke-linejoin="round"/>
<path d="M324.233 284.947L326.118 440.258" stroke="white" stroke-width="0.75" stroke-linecap="round" stroke-linejoin="round"/>
<path d="M276.029 272.792L319.423 265.213L360.282 269.763L320.424 278.837L276.029 272.792Z" fill="white" stroke="#263238" stroke-linecap="round" stroke-linejoin="round"/>
<path d="M284.817 272.623L319.15 266.643L351.494 270.231L319.956 277.42L284.817 272.623Z" fill="white" stroke="#263238" stroke-width="0.75" stroke-linecap="round" stroke-linejoin="round"/>
<path d="M323.18 308.321L358.852 297.778V319.267L323.18 331.019V308.321Z" fill="#8D1CFF" stroke="#263238" stroke-miterlimit="10"/>
<path d="M332.906 321.534C332.301 321.722 331.827 321.68 331.484 321.409C331.145 321.132 330.971 320.624 330.964 319.885L330.947 318.16L332.305 317.738L332.322 319.391C332.324 319.581 332.336 319.754 332.358 319.908C332.385 320.062 332.435 320.175 332.509 320.247C332.584 320.32 332.698 320.332 332.851 320.284C333.005 320.236 333.119 320.155 333.191 320.041C333.264 319.923 333.311 319.776 333.334 319.599C333.357 319.42 333.367 319.213 333.365 318.978L333.291 311.607L334.697 311.17L334.77 318.47C334.778 319.265 334.616 319.928 334.284 320.461C333.956 320.993 333.497 321.35 332.906 321.534ZM338.146 319.905C337.667 320.054 337.274 320.069 336.968 319.952C336.665 319.833 336.44 319.587 336.292 319.214C336.145 318.841 336.068 318.347 336.062 317.732L336.018 313.311C336.012 312.754 336.077 312.256 336.213 311.817C336.349 311.378 336.568 311.005 336.87 310.698C337.172 310.391 337.57 310.161 338.063 310.008C338.433 309.893 338.747 309.856 339.003 309.897C339.26 309.939 339.468 310.05 339.628 310.232C339.787 310.41 339.904 310.653 339.977 310.961C340.054 311.264 340.094 311.624 340.098 312.042L340.142 316.463C340.149 317.078 340.084 317.616 339.948 318.077C339.816 318.537 339.602 318.92 339.307 319.224C339.012 319.529 338.625 319.756 338.146 319.905ZM338.133 318.631C338.308 318.576 338.439 318.481 338.525 318.344C338.611 318.207 338.667 318.022 338.693 317.79C338.722 317.553 338.735 317.263 338.732 316.918L338.687 312.415C338.682 311.993 338.641 311.681 338.562 311.478C338.486 311.27 338.324 311.205 338.076 311.282C337.82 311.362 337.648 311.527 337.56 311.779C337.471 312.027 337.429 312.367 337.433 312.799L337.478 317.308C337.482 317.66 337.499 317.945 337.529 318.163C337.562 318.377 337.625 318.522 337.717 318.6C337.813 318.677 337.951 318.687 338.133 318.631ZM341.449 318.768L341.353 309.101L343.351 308.479C343.816 308.335 344.188 308.295 344.465 308.359C344.743 308.419 344.945 308.592 345.07 308.876C345.199 309.155 345.266 309.555 345.272 310.075L345.275 310.372C345.28 310.873 345.221 311.307 345.098 311.672C344.979 312.032 344.775 312.321 344.486 312.54C344.728 312.549 344.922 312.641 345.068 312.816C345.217 312.987 345.324 313.219 345.39 313.515C345.456 313.806 345.491 314.139 345.495 314.513L345.497 314.76C345.5 315.405 345.434 315.953 345.298 316.403C345.162 316.849 344.947 317.212 344.651 317.491C344.356 317.77 343.969 317.984 343.49 318.133L341.449 318.768ZM342.844 317.188L343.342 317.033C343.527 316.976 343.674 316.888 343.781 316.77C343.892 316.647 343.971 316.478 344.018 316.261C344.065 316.044 344.087 315.762 344.083 315.414L344.076 314.634C344.071 314.166 344.024 313.839 343.934 313.653C343.848 313.464 343.67 313.41 343.401 313.494L342.809 313.678L342.844 317.188ZM342.797 312.574L343.317 312.413C343.439 312.375 343.539 312.326 343.615 312.265C343.692 312.205 343.751 312.124 343.792 312.023C343.833 311.918 343.859 311.783 343.872 311.618C343.888 311.451 343.894 311.243 343.892 310.994L343.886 310.412C343.883 310.152 343.859 309.962 343.812 309.84C343.765 309.719 343.694 309.649 343.599 309.631C343.508 309.612 343.389 309.625 343.242 309.67L342.77 309.817L342.797 312.574Z" fill="#263238"/>
<path d="M399.633 362.076L359.281 379.743L413.894 391.079L446.043 369.148L399.633 362.076Z" fill="white" stroke="#263238" stroke-linecap="round" stroke-linejoin="round"/>
<path d="M400.049 364.091L365.3 379.301L412.334 389.064L440.024 370.175L400.049 364.091Z" fill="white" stroke="#263238" stroke-width="0.75" stroke-linecap="round" stroke-linejoin="round"/>
<path d="M359.281 379.743L360.282 462.28L413.257 475.397L413.894 391.079L359.281 379.743Z" fill="white" stroke="#263238" stroke-linecap="round" stroke-linejoin="round"/>
<path d="M367.731 451.139L367.263 437.333L398.567 445.614V459.42L367.731 451.139Z" fill="#263238"/>
<path d="M363.714 391.404L400.595 399.516L401.102 426.322L364.624 417.404L363.714 391.404Z" fill="#8D1CFF" stroke="#263238" stroke-linecap="round" stroke-linejoin="round"/>
<path d="M369.69 403.909L368.912 397.233L369.781 397.416L370.248 402.154L370.842 397.638L371.624 397.803L372.221 402.568L372.634 398.015L373.507 398.198L372.775 404.557L371.809 404.354L371.244 399.906L370.657 404.112L369.69 403.909ZM374.148 404.845V398.333L376.284 398.781V399.636L375.118 399.391V401.286L376.226 401.518V402.355L375.118 402.122V404.194L376.328 404.448V405.303L374.148 404.845ZM378.001 405.654L378.91 399.333L380.192 399.602L381.159 406.317L380.253 406.127L380.101 404.933L379.073 404.717L378.935 405.85L378.001 405.654ZM379.167 403.941L380 404.116L379.572 400.756L379.558 400.753L379.167 403.941ZM381.738 406.439V399.926L383.342 400.263C383.675 400.333 383.924 400.452 384.088 400.62C384.252 400.787 384.36 401.005 384.41 401.272C384.463 401.54 384.49 401.859 384.49 402.229C384.49 402.611 384.451 402.904 384.374 403.107C384.299 403.308 384.145 403.422 383.911 403.446C384.022 403.489 384.115 403.556 384.189 403.646C384.264 403.733 384.325 403.852 384.371 404.002C384.416 404.15 384.449 404.335 384.468 404.559C384.49 404.78 384.501 405.049 384.501 405.365C384.501 405.39 384.501 405.459 384.501 405.572C384.501 405.686 384.501 405.82 384.501 405.975C384.503 406.129 384.506 406.282 384.508 406.436C384.511 406.589 384.514 406.721 384.519 406.83C384.524 406.94 384.53 407.005 384.537 407.026L383.567 406.823C383.559 406.809 383.553 406.745 383.549 406.63C383.546 406.514 383.542 406.366 383.538 406.188C383.535 406.009 383.533 405.818 383.53 405.613C383.53 405.408 383.53 405.207 383.53 405.009C383.53 404.81 383.53 404.633 383.53 404.48C383.53 404.285 383.516 404.136 383.487 404.031C383.46 403.924 383.41 403.843 383.335 403.788C383.262 403.733 383.157 403.688 383.02 403.652L382.708 403.568V406.642L381.738 406.439ZM382.712 402.799L383.099 402.88C383.218 402.905 383.307 402.897 383.367 402.855C383.43 402.814 383.472 402.723 383.494 402.582C383.518 402.441 383.53 402.234 383.53 401.96V401.92C383.53 401.69 383.52 401.512 383.498 401.384C383.476 401.256 383.43 401.161 383.36 401.1C383.293 401.039 383.186 400.993 383.042 400.962L382.712 400.893V402.799ZM385.33 407.193V400.681L387.467 401.129V401.984L386.301 401.739V403.634L387.409 403.866V404.703L386.301 404.47V406.542L387.51 406.796V407.651L385.33 407.193Z" fill="#263238"/>
<path d="M369.587 413.117V406.605L370.557 406.809V409.443L371.426 409.626V406.991L372.397 407.195V413.707L371.426 413.504V410.477L370.557 410.294V413.321L369.587 413.117ZM373.375 413.913V407.4L374.345 407.604V414.116L373.375 413.913ZM375.323 414.322V407.809L376.927 408.146C377.26 408.216 377.509 408.335 377.673 408.503C377.837 408.671 377.945 408.888 377.995 409.155C378.048 409.423 378.075 409.742 378.075 410.112C378.075 410.494 378.036 410.787 377.959 410.99C377.884 411.192 377.73 411.305 377.496 411.329C377.607 411.373 377.7 411.439 377.774 411.529C377.849 411.616 377.91 411.735 377.955 411.885C378.001 412.033 378.034 412.218 378.053 412.442C378.075 412.664 378.086 412.932 378.086 413.248C378.086 413.273 378.086 413.342 378.086 413.455C378.086 413.569 378.086 413.703 378.086 413.859C378.088 414.012 378.091 414.165 378.093 414.319C378.095 414.472 378.099 414.604 378.104 414.713C378.109 414.823 378.115 414.888 378.122 414.91L377.152 414.706C377.144 414.692 377.138 414.628 377.133 414.513C377.131 414.397 377.127 414.249 377.123 414.071C377.12 413.893 377.118 413.701 377.115 413.496C377.115 413.291 377.115 413.09 377.115 412.893C377.115 412.693 377.115 412.516 377.115 412.363C377.115 412.169 377.101 412.019 377.072 411.914C377.045 411.807 376.995 411.726 376.92 411.671C376.847 411.616 376.742 411.571 376.605 411.535L376.293 411.451V414.526L375.323 414.322ZM376.297 410.682L376.684 410.763C376.803 410.788 376.892 410.78 376.952 410.738C377.015 410.697 377.057 410.606 377.079 410.465C377.103 410.325 377.115 410.117 377.115 409.844V409.803C377.115 409.573 377.104 409.395 377.083 409.267C377.061 409.139 377.015 409.044 376.945 408.983C376.878 408.922 376.771 408.876 376.626 408.845L376.297 408.776V410.682ZM378.937 415.081V408.568L379.907 408.772V415.284L378.937 415.081ZM380.885 415.49V408.978L381.645 409.137L382.996 413.328L382.927 411.538V409.406L383.8 409.59V416.102L383.112 415.957L381.725 411.622L381.779 413.343V415.678L380.885 415.49ZM385.958 416.622C385.574 416.541 385.265 416.322 385.031 415.965C384.797 415.605 384.68 415.077 384.68 414.381V411.551C384.68 411.259 384.706 411.005 384.76 410.787C384.815 410.569 384.9 410.393 385.013 410.259C385.129 410.123 385.279 410.033 385.462 409.991C385.646 409.945 385.866 409.95 386.125 410.004C386.405 410.063 386.633 410.154 386.809 410.277C386.985 410.398 387.121 410.55 387.215 410.732C387.311 410.913 387.378 411.124 387.414 411.366C387.45 411.608 387.468 411.877 387.468 412.173V412.636L386.563 412.446V411.765C386.563 411.471 386.533 411.256 386.472 411.12C386.414 410.985 386.303 410.9 386.139 410.865C385.958 410.827 385.833 410.874 385.763 411.005C385.693 411.133 385.658 411.381 385.658 411.748V414.572C385.658 414.981 385.687 415.281 385.745 415.471C385.805 415.658 385.929 415.772 386.118 415.812C386.301 415.85 386.43 415.787 386.505 415.623C386.582 415.457 386.621 415.161 386.621 414.737V413.86L386.132 413.757V413.036L387.468 413.316V416.872L387.034 416.781L386.885 416.11C386.832 416.323 386.719 416.473 386.545 416.56C386.373 416.647 386.178 416.668 385.958 416.622Z" fill="#263238"/>
<path d="M414.271 344.422L413.257 475.397L468.247 490.529L472.29 354.51L414.271 344.422Z" fill="white" stroke="#263238" stroke-linecap="round" stroke-linejoin="round"/>
<path d="M421.46 350.324L420.199 464.49" stroke="#263238" stroke-width="0.75" stroke-linecap="round" stroke-linejoin="round"/>
<path d="M428.675 352.131L428.025 467.714" stroke="#263238" stroke-width="0.75" stroke-linecap="round" stroke-linejoin="round"/>
<path d="M438.061 354.653L437.697 471.393" stroke="#263238" stroke-width="0.75" stroke-linecap="round" stroke-linejoin="round"/>
<path d="M448.903 356.824L447.824 474.617" stroke="#263238" stroke-width="0.75" stroke-linecap="round" stroke-linejoin="round"/>
<path d="M461.175 358.995L457.951 476.918" stroke="#263238" stroke-width="0.75" stroke-linecap="round" stroke-linejoin="round"/>
<path d="M472.29 354.51L503.061 336.856L447.564 328.783L414.271 344.422L472.29 354.51Z" fill="white" stroke="#263238" stroke-linecap="round" stroke-linejoin="round"/>
<path d="M469.534 351.923L494.117 337.818L449.8 331.383L423.202 343.863L469.534 351.923Z" fill="white" stroke="#263238" stroke-width="0.75" stroke-linecap="round" stroke-linejoin="round"/>
<path d="M503.061 336.856L498.017 494.403L468.247 490.529L472.29 354.51L503.061 336.856Z" fill="#263238" stroke="#263238" stroke-linecap="round" stroke-linejoin="round"/>
<path d="M478.309 358.02L475.059 485.199" stroke="white" stroke-width="0.75" stroke-linecap="round" stroke-linejoin="round"/>
<path d="M486.447 352.495L483.561 477.841" stroke="white" stroke-width="0.75" stroke-linecap="round" stroke-linejoin="round"/>
<path d="M495.105 346.359L492.934 475.072" stroke="white" stroke-width="0.75" stroke-linecap="round" stroke-linejoin="round"/>
<path d="M428.155 378.027V403.975L415.597 401.947L416.728 394.316L403.026 405.587L416.403 417.352L416.806 411.671L437.879 416.533L438.685 382.902L428.155 378.027Z" fill="#8D1CFF" stroke="#263238" stroke-linecap="round" stroke-linejoin="round"/>
<path d="M419.25 410.891C419.25 411.198 419.159 411.497 418.988 411.752C418.818 412.007 418.575 412.205 418.292 412.321C418.008 412.438 417.697 412.468 417.396 412.407C417.096 412.347 416.82 412.198 416.604 411.98C416.388 411.763 416.242 411.486 416.184 411.185C416.126 410.884 416.158 410.572 416.277 410.29C416.396 410.008 416.597 409.767 416.853 409.598C417.109 409.43 417.409 409.341 417.716 409.344C417.918 409.344 418.119 409.384 418.306 409.462C418.493 409.54 418.662 409.654 418.805 409.798C418.948 409.942 419.06 410.112 419.137 410.3C419.213 410.488 419.251 410.689 419.25 410.891Z" fill="white" stroke="#263238" stroke-linecap="round" stroke-linejoin="round"/>
<path d="M424.034 414.063C424.888 414.063 425.581 413.37 425.581 412.516C425.581 411.662 424.888 410.969 424.034 410.969C423.179 410.969 422.487 411.662 422.487 412.516C422.487 413.37 423.179 414.063 424.034 414.063Z" fill="white" stroke="#263238" stroke-linecap="round" stroke-linejoin="round"/>
<path d="M431.912 414.128C431.912 414.434 431.821 414.733 431.651 414.988C431.481 415.242 431.24 415.44 430.957 415.557C430.674 415.674 430.363 415.705 430.063 415.645C429.763 415.586 429.487 415.438 429.271 415.222C429.055 415.006 428.907 414.73 428.848 414.43C428.788 414.13 428.819 413.819 428.936 413.536C429.053 413.253 429.251 413.012 429.505 412.842C429.76 412.672 430.059 412.581 430.365 412.581C430.775 412.581 431.169 412.744 431.459 413.034C431.749 413.324 431.912 413.718 431.912 414.128Z" fill="white" stroke="#263238" stroke-linecap="round" stroke-linejoin="round"/>
<path d="M438.243 415.753C438.243 416.059 438.152 416.358 437.982 416.613C437.812 416.867 437.571 417.065 437.288 417.182C437.005 417.299 436.694 417.33 436.394 417.27C436.094 417.211 435.818 417.063 435.602 416.847C435.386 416.631 435.238 416.355 435.179 416.055C435.119 415.755 435.15 415.444 435.267 415.161C435.384 414.878 435.582 414.637 435.836 414.467C436.091 414.297 436.39 414.206 436.696 414.206C437.106 414.206 437.5 414.369 437.79 414.659C438.08 414.949 438.243 415.343 438.243 415.753Z" fill="white" stroke="#263238" stroke-linecap="round" stroke-linejoin="round"/>
<path d="M438.971 407.953C438.971 408.259 438.88 408.558 438.71 408.812C438.54 409.067 438.299 409.265 438.016 409.382C437.733 409.499 437.422 409.53 437.122 409.47C436.822 409.411 436.546 409.263 436.33 409.047C436.114 408.831 435.966 408.555 435.907 408.255C435.847 407.955 435.878 407.644 435.995 407.361C436.112 407.078 436.31 406.837 436.564 406.667C436.819 406.497 437.118 406.406 437.424 406.406C437.834 406.406 438.228 406.569 438.518 406.859C438.808 407.149 438.971 407.543 438.971 407.953Z" fill="white" stroke="#263238" stroke-linecap="round" stroke-linejoin="round"/>
<path d="M439.27 399.269C439.27 399.575 439.179 399.874 439.009 400.128C438.839 400.383 438.597 400.581 438.315 400.698C438.032 400.815 437.721 400.846 437.421 400.786C437.121 400.727 436.845 400.579 436.629 400.363C436.413 400.146 436.265 399.871 436.206 399.571C436.146 399.271 436.176 398.96 436.294 398.677C436.411 398.394 436.609 398.153 436.863 397.983C437.118 397.813 437.417 397.722 437.723 397.722C438.133 397.722 438.527 397.885 438.817 398.175C439.107 398.465 439.27 398.859 439.27 399.269Z" fill="white" stroke="#263238" stroke-linecap="round" stroke-linejoin="round"/>
<path d="M439.712 390.663C439.712 390.969 439.621 391.268 439.451 391.522C439.281 391.777 439.04 391.975 438.757 392.092C438.474 392.209 438.163 392.24 437.863 392.18C437.563 392.121 437.288 391.973 437.071 391.757C436.855 391.541 436.708 391.265 436.648 390.965C436.588 390.665 436.619 390.354 436.736 390.071C436.853 389.788 437.051 389.547 437.306 389.377C437.56 389.207 437.859 389.116 438.165 389.116C438.575 389.116 438.969 389.279 439.259 389.569C439.549 389.859 439.712 390.253 439.712 390.663Z" fill="white" stroke="#263238" stroke-linecap="round" stroke-linejoin="round"/>
<path d="M439.556 383.669C439.556 383.976 439.465 384.275 439.294 384.53C439.124 384.785 438.881 384.983 438.598 385.1C438.314 385.216 438.003 385.246 437.702 385.185C437.402 385.125 437.126 384.976 436.91 384.758C436.695 384.541 436.548 384.264 436.49 383.963C436.432 383.662 436.464 383.35 436.583 383.068C436.703 382.786 436.903 382.545 437.159 382.377C437.415 382.208 437.715 382.12 438.022 382.122C438.224 382.122 438.425 382.162 438.612 382.24C438.799 382.318 438.969 382.432 439.111 382.576C439.254 382.72 439.367 382.89 439.443 383.078C439.519 383.266 439.558 383.467 439.556 383.669Z" fill="white" stroke="#263238" stroke-linecap="round" stroke-linejoin="round"/>
<path d="M435.149 380.575C435.152 380.882 435.063 381.182 434.895 381.438C434.726 381.694 434.486 381.894 434.203 382.013C433.921 382.133 433.609 382.165 433.308 382.107C433.007 382.049 432.731 381.902 432.513 381.687C432.295 381.471 432.147 381.195 432.086 380.895C432.025 380.594 432.055 380.282 432.172 379.999C432.288 379.716 432.487 379.473 432.741 379.303C432.996 379.132 433.296 379.041 433.602 379.041C434.01 379.041 434.402 379.202 434.691 379.49C434.981 379.777 435.146 380.167 435.149 380.575Z" fill="white" stroke="#263238" stroke-linecap="round" stroke-linejoin="round"/>
<path d="M428.532 379.626C429.386 379.626 430.079 378.933 430.079 378.079C430.079 377.225 429.386 376.532 428.532 376.532C427.677 376.532 426.985 377.225 426.985 378.079C426.985 378.933 427.677 379.626 428.532 379.626Z" fill="white" stroke="#263238" stroke-linecap="round" stroke-linejoin="round"/>
<path d="M429.637 386.516C429.637 386.822 429.546 387.121 429.376 387.375C429.206 387.63 428.965 387.828 428.682 387.945C428.399 388.062 428.088 388.093 427.788 388.033C427.488 387.974 427.212 387.826 426.996 387.61C426.78 387.394 426.632 387.118 426.573 386.818C426.513 386.518 426.544 386.207 426.661 385.924C426.778 385.641 426.976 385.4 427.231 385.23C427.485 385.06 427.784 384.969 428.09 384.969C428.5 384.969 428.894 385.132 429.184 385.422C429.474 385.712 429.637 386.106 429.637 386.516Z" fill="white" stroke="#263238" stroke-linecap="round" stroke-linejoin="round"/>
<path d="M429.195 394.953C429.195 395.259 429.104 395.558 428.934 395.812C428.764 396.067 428.523 396.265 428.24 396.382C427.957 396.499 427.646 396.53 427.346 396.47C427.046 396.41 426.771 396.263 426.554 396.047C426.338 395.83 426.19 395.555 426.131 395.255C426.071 394.955 426.102 394.643 426.219 394.361C426.336 394.078 426.534 393.837 426.789 393.667C427.043 393.497 427.342 393.406 427.648 393.406C427.852 393.404 428.054 393.443 428.242 393.52C428.431 393.597 428.602 393.711 428.746 393.855C428.89 393.999 429.004 394.17 429.081 394.359C429.158 394.547 429.197 394.749 429.195 394.953Z" fill="white" stroke="#263238" stroke-linecap="round" stroke-linejoin="round"/>
<path d="M428.766 403.377C428.766 403.683 428.675 403.982 428.505 404.237C428.335 404.491 428.094 404.689 427.811 404.806C427.528 404.923 427.217 404.954 426.917 404.894C426.617 404.835 426.341 404.687 426.125 404.471C425.909 404.255 425.761 403.979 425.702 403.679C425.642 403.379 425.673 403.068 425.79 402.785C425.907 402.502 426.105 402.261 426.359 402.091C426.614 401.921 426.913 401.83 427.219 401.83C427.629 401.83 428.023 401.993 428.313 402.283C428.603 402.573 428.766 402.967 428.766 403.377Z" fill="white" stroke="#263238" stroke-linecap="round" stroke-linejoin="round"/>
<path d="M417.872 402.051C417.874 402.358 417.786 402.658 417.617 402.914C417.449 403.17 417.208 403.37 416.926 403.49C416.643 403.609 416.332 403.641 416.031 403.583C415.73 403.525 415.453 403.378 415.236 403.163C415.018 402.947 414.869 402.671 414.809 402.371C414.748 402.07 414.778 401.759 414.894 401.475C415.011 401.192 415.209 400.949 415.464 400.779C415.719 400.608 416.018 400.517 416.325 400.517C416.733 400.517 417.124 400.678 417.414 400.966C417.704 401.253 417.868 401.643 417.872 402.051Z" fill="white" stroke="#263238" stroke-linecap="round" stroke-linejoin="round"/>
<path d="M418.171 394.55C418.171 394.856 418.08 395.155 417.91 395.409C417.74 395.664 417.499 395.862 417.216 395.979C416.933 396.096 416.622 396.127 416.322 396.067C416.022 396.008 415.747 395.86 415.53 395.644C415.314 395.427 415.167 395.152 415.107 394.852C415.047 394.552 415.078 394.241 415.195 393.958C415.312 393.675 415.51 393.434 415.765 393.264C416.019 393.094 416.318 393.003 416.624 393.003C417.034 393.003 417.428 393.166 417.718 393.456C418.008 393.746 418.171 394.14 418.171 394.55Z" fill="white" stroke="#263238" stroke-linecap="round" stroke-linejoin="round"/>
<path d="M405.132 405.444C405.132 405.75 405.041 406.049 404.871 406.303C404.701 406.558 404.46 406.756 404.177 406.873C403.894 406.99 403.583 407.021 403.283 406.961C402.983 406.902 402.708 406.754 402.491 406.538C402.275 406.322 402.128 406.046 402.068 405.746C402.008 405.446 402.039 405.135 402.156 404.852C402.273 404.569 402.471 404.328 402.726 404.158C402.98 403.988 403.279 403.897 403.585 403.897C403.995 403.897 404.389 404.06 404.679 404.35C404.969 404.64 405.132 405.034 405.132 405.444Z" fill="white" stroke="#263238" stroke-linecap="round" stroke-linejoin="round"/>
<path d="M417.937 418.392C417.937 418.698 417.846 418.997 417.676 419.251C417.506 419.506 417.264 419.704 416.982 419.821C416.699 419.938 416.388 419.969 416.088 419.909C415.788 419.85 415.512 419.702 415.296 419.486C415.08 419.27 414.932 418.994 414.872 418.694C414.813 418.394 414.843 418.083 414.961 417.8C415.078 417.517 415.276 417.276 415.53 417.106C415.785 416.936 416.084 416.845 416.39 416.845C416.8 416.845 417.194 417.008 417.484 417.298C417.774 417.588 417.937 417.982 417.937 418.392Z" fill="white" stroke="#263238" stroke-linecap="round" stroke-linejoin="round"/>
<path d="M409.981 410.891C409.981 411.198 409.89 411.497 409.719 411.752C409.549 412.007 409.306 412.205 409.023 412.321C408.739 412.438 408.428 412.468 408.127 412.407C407.827 412.347 407.551 412.198 407.335 411.98C407.119 411.763 406.973 411.486 406.915 411.185C406.857 410.884 406.889 410.572 407.008 410.29C407.127 410.008 407.328 409.767 407.584 409.598C407.84 409.43 408.14 409.341 408.447 409.344C408.649 409.344 408.85 409.384 409.037 409.462C409.224 409.54 409.393 409.654 409.536 409.798C409.679 409.942 409.791 410.112 409.868 410.3C409.944 410.488 409.982 410.689 409.981 410.891Z" fill="white" stroke="#263238" stroke-linecap="round" stroke-linejoin="round"/>
<path d="M411.021 400.296C411.021 400.602 410.93 400.901 410.76 401.155C410.59 401.41 410.348 401.608 410.066 401.725C409.783 401.842 409.472 401.873 409.172 401.813C408.872 401.754 408.596 401.606 408.38 401.39C408.164 401.174 408.016 400.898 407.956 400.598C407.897 400.298 407.927 399.987 408.045 399.704C408.162 399.421 408.36 399.18 408.614 399.01C408.869 398.84 409.168 398.749 409.474 398.749C409.884 398.749 410.278 398.912 410.568 399.202C410.858 399.492 411.021 399.886 411.021 400.296Z" fill="white" stroke="#263238" stroke-linecap="round" stroke-linejoin="round"/>
<path d="M82.1079 449.579L199.81 396.981L532.259 490.412L463.58 542.399" fill="white"/>
<path d="M82.1079 449.579L199.81 396.981L532.259 490.412L463.58 542.399" stroke="#263238" stroke-linecap="round" stroke-linejoin="round"/>
<path d="M107.38 456.196L202.722 413.595L472.004 489.281L416.377 531.375" fill="white"/>
<path d="M107.38 456.196L202.722 413.595L472.004 489.281L416.377 531.375" stroke="#263238" stroke-linecap="round" stroke-linejoin="round"/>
<path d="M202.722 413.595V425.49L459.693 498.121L472.004 489.281L206.804 415.129" fill="#263238"/>
<path d="M107.38 468.091L202.722 425.49L459.056 497.523" stroke="#263238" stroke-linecap="round" stroke-linejoin="round"/>
<path d="M600.99 541.814L532.259 490.412L464.334 541.814H600.99Z" fill="#263238"/>
<path d="M183.638 495.261C209.291 495.261 230.087 485.675 230.087 473.85C230.087 462.025 209.291 452.439 183.638 452.439C157.985 452.439 137.189 462.025 137.189 473.85C137.189 485.675 157.985 495.261 183.638 495.261Z" fill="#8D1CFF"/>
<path opacity="0.5" d="M183.638 495.261C209.291 495.261 230.087 485.675 230.087 473.85C230.087 462.025 209.291 452.439 183.638 452.439C157.985 452.439 137.189 462.025 137.189 473.85C137.189 485.675 157.985 495.261 183.638 495.261Z" fill="white"/>
<path d="M195 216.112C195 216.112 198.25 223.912 197.6 227.812C196.95 231.712 188.188 234.962 186.888 235.612C185.588 236.262 178.776 233.337 178.776 225.862C178.776 218.387 191.1 209.95 195 216.112Z" fill="white" stroke="#263238" stroke-linecap="round" stroke-linejoin="round"/>
<path d="M191.191 195L209.469 192.881C210.324 192.788 211.19 192.865 212.015 193.108C212.84 193.352 213.609 193.757 214.277 194.3C214.944 194.843 215.497 195.513 215.904 196.272C216.31 197.03 216.562 197.861 216.645 198.718C216.718 199.598 216.61 200.484 216.33 201.321C216.049 202.158 215.6 202.929 215.011 203.588C214.423 204.246 213.706 204.777 212.905 205.149C212.104 205.521 211.236 205.726 210.353 205.751L193.453 206.102L191.191 195Z" fill="#263238"/>
<path d="M193.349 191.1C193.349 191.1 197.249 189.8 199.849 191.1C202.449 192.4 204.724 194.35 204.399 195.65C204.074 196.95 202.124 196.625 199.524 196.95C196.924 197.275 194.129 199.069 193.583 197.691C193.037 196.313 193.349 191.1 193.349 191.1Z" fill="white" stroke="#263238" stroke-linecap="round" stroke-linejoin="round"/>
<path d="M202.943 196.729L221.338 196.261C222.201 196.245 223.059 196.402 223.861 196.722C224.663 197.041 225.394 197.518 226.01 198.123C226.626 198.728 227.115 199.45 227.449 200.246C227.783 201.042 227.955 201.897 227.955 202.761C227.957 203.649 227.776 204.529 227.425 205.345C227.073 206.161 226.558 206.896 225.911 207.506C225.264 208.115 224.499 208.585 223.663 208.887C222.828 209.189 221.939 209.316 221.052 209.261L204.152 208.078L202.943 196.729Z" fill="#263238"/>
<path d="M195.845 196.729L205.231 196.937C205.835 197.403 206.333 197.992 206.694 198.664C207.054 199.336 207.269 200.076 207.324 200.837C207.341 203.092 207.057 205.339 206.479 207.519H196.469C195.101 206.452 194.086 204.998 193.557 203.346C192.725 200.681 195.845 196.729 195.845 196.729Z" fill="#263238"/>
<path d="M192.4 239.122C192.4 239.122 204.217 240.539 210.262 241.098C216.307 241.657 229.97 233.974 237.64 231.998C246.74 229.619 251.537 234.78 253.916 237.952C256.295 241.124 273 252.616 273 252.616L276.172 261.352L262.678 265.72C262.678 265.72 257.478 259.363 249.574 249.444C241.67 239.525 238.134 234.481 231.751 238.394C225.368 242.307 216.242 249.444 209.092 247.858C201.942 246.272 192.4 239.122 192.4 239.122Z" fill="#263238"/>
<path d="M197.6 464.451L198.536 464.763L217.75 471.055C217.75 471.055 220.181 472.433 219.479 474.526C218.777 476.619 198.679 479.037 190.658 479.037C182.637 479.037 177.463 478.348 177.463 475.215C177.463 472.082 197.6 464.451 197.6 464.451Z" fill="#8D1CFF" stroke="#263238" stroke-linecap="round" stroke-linejoin="round"/>
<path d="M219.518 474.5C219.647 474.064 219.66 473.602 219.555 473.159C219.45 472.717 219.231 472.309 218.92 471.978C211.346 474.049 203.57 475.287 195.728 475.67C189.719 476.19 183.682 476.311 177.658 476.034C178.555 478.439 183.482 479.011 190.658 479.011C198.679 479.037 218.829 476.606 219.518 474.5Z" fill="white" stroke="#263238" stroke-linecap="round" stroke-linejoin="round"/>
<path d="M162.565 452.647C162.565 452.647 172.627 448.474 174.369 451.945C176.111 455.416 171.938 460.629 169.507 461.669C167.076 462.709 165.334 463.411 163.956 465.14C162.578 466.869 158.392 471.055 153.881 470.34C149.37 469.625 149.357 463.749 149.708 462.696C150.059 461.643 162.565 452.647 162.565 452.647Z" fill="#8D1CFF" stroke="#263238" stroke-linecap="round" stroke-linejoin="round"/>
<path d="M173.459 451.1C173.173 453.921 172.354 457.015 170.287 458.172C166.114 460.486 164.268 460.018 160.563 464.672C159.422 466.016 157.944 467.032 156.281 467.617C154.619 468.201 152.83 468.334 151.099 468L150.683 468.299C151.021 468.873 151.484 469.363 152.037 469.732C152.591 470.101 153.222 470.34 153.881 470.431C158.392 471.133 162.565 466.96 163.956 465.231C165.347 463.502 167.076 462.8 169.507 461.76C171.938 460.72 176.111 455.507 174.369 452.036C174.177 451.632 173.857 451.303 173.459 451.1Z" fill="white" stroke="#263238" stroke-linecap="round" stroke-linejoin="round"/>
<path d="M154.57 307.463C154.57 307.463 151.788 318.929 153.881 324.129C155.974 329.329 156.312 337.675 156.663 340.457C157.014 343.239 153.179 366.457 151.788 378.664C150.397 390.871 144.495 404.365 146.926 413.049C149.357 421.733 147.277 453.349 147.979 458.198C148.681 463.047 150.059 467.298 151.099 467.922C152.139 468.546 155.961 468.962 159.094 467.571C162.227 466.18 164.294 455.767 164.996 452.647C165.698 449.527 168.467 413.049 169.507 407.485C170.547 401.921 173.68 376.922 173.68 376.922C173.68 376.922 176.449 397.423 175.76 402.922C175.071 408.421 172.627 419.25 173.68 428.922C174.733 438.594 176.449 474.76 176.449 474.76C177.952 475.626 179.599 476.216 181.311 476.502C183.053 476.502 196.248 467.467 197.639 464.347C199.03 461.227 197.639 455.663 197.639 455.663C197.639 455.663 200.07 400.439 202.501 381.68C204.932 362.921 199.381 311.87 199.381 311.87C199.381 311.87 171.938 318.227 154.57 307.463Z" fill="#263238"/>
<path d="M173.329 372.762L168.818 347.412L161.174 334.204" stroke="white" stroke-linecap="round" stroke-linejoin="round"/>
<path d="M196.3 188.5C197.118 190.728 197.668 193.045 197.938 195.403C197.938 197.691 196.638 199.303 196.95 200.98C197.262 202.657 199.901 205.244 197.613 209.508C195.325 213.772 197.275 220.012 193.999 221.325C191.791 222.139 189.462 222.578 187.109 222.625L186.121 229.84L169.715 224.64V211.484C169.715 211.484 176.605 211.809 179.231 208.52C181.857 205.231 181.194 198.354 182.507 193.752C183.82 189.15 189.072 186.212 191.373 186.212C193.674 186.212 196.3 188.5 196.3 188.5Z" fill="white" stroke="#263238" stroke-linecap="round" stroke-linejoin="round"/>
<path d="M201.006 182.559C200.655 183.812 200.058 184.983 199.25 186.003C198.442 187.023 197.439 187.872 196.3 188.5C193.011 190.476 188.747 189.8 188.747 191.464C188.747 193.128 191.698 192.764 190.71 197.041C190.084 199.659 188.732 202.047 186.81 203.931C186.81 203.931 189.774 207.545 186.81 208.195C183.846 208.845 183.209 213.122 179.595 214.11C175.981 215.098 172.705 217.711 169.754 215.085C166.803 212.459 157.274 201.63 155.961 194.415C154.648 187.2 161.876 179.647 161.876 179.647C161.876 179.647 161.551 175.383 164.177 173.732C166.803 172.081 173.823 171.535 174.486 168.909C177.242 157.989 196.183 168.272 199.511 174.044C201.053 176.597 201.587 179.633 201.006 182.559Z" fill="#263238"/>
<path d="M195 180.154C195.032 181.569 194.687 182.966 194.002 184.204C193.317 185.442 192.315 186.476 191.1 187.2C186.888 189.54 177.515 187.668 174.2 192.114C170.885 196.56 173.264 203.58 168.35 204.75" stroke="white" stroke-width="0.5" stroke-linecap="round" stroke-linejoin="round"/>
<path d="M187.798 194.896C187.798 194.896 183.339 196.3 181.467 199.108C179.595 201.916 178.659 208.468 173.043 210.106" stroke="white" stroke-width="0.5" stroke-linecap="round" stroke-linejoin="round"/>
<path d="M187.109 209.833C187.109 209.833 184.509 201.955 180.869 203.931C177.229 205.907 180.219 211.809 182.169 213.447C184.119 215.085 186.433 212.797 186.433 212.797" fill="white"/>
<path d="M187.109 209.833C187.109 209.833 184.509 201.955 180.869 203.931C177.229 205.907 180.219 211.809 182.169 213.447C184.119 215.085 186.433 212.797 186.433 212.797" stroke="#263238" stroke-linecap="round" stroke-linejoin="round"/>
<path d="M161.837 225.914C157.767 228.841 154.35 232.582 151.801 236.899C147.901 243.789 152.971 275.808 154.284 284.336C155.597 292.864 152.646 306.982 154.947 310.921C157.248 314.86 164.788 318.136 172.003 318.799C179.218 319.462 190.385 318.474 194.649 317.161C198.913 315.848 201.214 312.234 201.214 310.596C201.214 308.958 200.889 288.938 200.889 284.661C200.889 280.384 200.564 249.873 197.938 243.971C195.548 238.849 191.499 234.685 186.446 232.154C182.507 230.191 167.7 222.963 161.837 225.914Z" fill="#8D1CFF" stroke="#263238" stroke-linecap="round" stroke-linejoin="round"/>
<path d="M190.944 264.927C190.944 264.927 187.434 268.112 177.528 269.399" stroke="#263238" stroke-miterlimit="10"/>
<path d="M183.872 278.603C182.929 279.591 181.873 280.463 180.726 281.203" stroke="#263238" stroke-miterlimit="10"/>
<path d="M192.218 264.927C190.691 268.754 188.705 272.382 186.303 275.73" stroke="#263238" stroke-miterlimit="10"/>
<path d="M190.619 300.365C184.746 308.004 176.183 313.117 166.673 314.665C166.673 314.665 180.726 314.99 189.982 305.084" stroke="#263238" stroke-linecap="round" stroke-linejoin="round"/>
<path d="M164.788 220.337C164.788 220.337 174.304 221 180.544 224.601C186.784 228.202 191.048 231.829 193.336 232.479C195.624 233.129 199.901 233.467 198.536 233.779C197.171 234.091 195.585 234.442 192.309 235.417C189.033 236.392 184.431 234.442 177.541 231.153C170.651 227.864 163.098 225.953 161.785 225.953C160.472 225.953 162.162 220.337 164.788 220.337Z" fill="#8D1CFF" stroke="#263238" stroke-linecap="round" stroke-linejoin="round"/>
<path d="M220.584 253.162C220.584 253.162 231.491 260.455 233.09 265.876" stroke="#263238" stroke-linecap="round" stroke-linejoin="round"/>
<path d="M219.921 241.345L208.442 214.5C206.991 212.872 205.334 211.438 203.515 210.236C203.218 210.099 202.958 209.893 202.756 209.637C202.553 209.38 202.414 209.08 202.35 208.759C202.285 208.439 202.297 208.108 202.384 207.793C202.471 207.478 202.631 207.188 202.852 206.947C202.852 206.947 206.141 207.61 206.141 206.297C206.101 204.116 205.879 201.941 205.478 199.797C205.153 198.809 204.178 198.146 204.178 197.197C204.178 196.248 206.479 194.896 209.105 195.559C211.731 196.222 211.289 195.832 211.289 195.832C215.046 195 215.774 195.832 217.646 199.16C218.816 201.732 219.377 204.539 219.284 207.363C219.284 209.014 217.308 213.928 217.308 213.928L231.426 241.228L219.921 241.345Z" fill="white" stroke="#263238" stroke-linecap="round" stroke-linejoin="round"/>
<path d="M221.234 248.898C221.234 248.898 216.97 248.898 217.334 247.91C217.698 246.922 216.359 243.308 216.359 241.67C216.359 240.032 219.31 238.056 222.859 237.406C226.408 236.756 230.412 238.056 231.725 238.394C233.038 238.732 233.363 241.345 234.325 242.983C235.287 244.621 235.963 246.597 235.313 247.91C234.683 248.83 233.77 249.519 232.713 249.873L221.234 248.898Z" fill="#8D1CFF" stroke="#263238" stroke-linecap="round" stroke-linejoin="round"/>
<path d="M173.979 243.971C173.979 243.971 176.28 236.093 180.869 234.455C185.458 232.817 191.048 235.105 196.625 238.719C202.202 242.333 220.584 253.162 220.584 253.162L218.608 245.284C218.608 245.284 230.425 241.67 233.376 247.247C236.327 252.824 238.303 273.182 238.303 275.847C238.303 278.512 231.413 280.761 227.149 280.436C222.885 280.111 185.133 261.404 185.133 261.404" fill="#8D1CFF"/>
<path d="M173.979 243.971C173.979 243.971 176.28 236.093 180.869 234.455C185.458 232.817 191.048 235.105 196.625 238.719C202.202 242.333 220.584 253.162 220.584 253.162L218.608 245.284C218.608 245.284 230.425 241.67 233.376 247.247C236.327 252.824 238.303 273.182 238.303 275.847C238.303 278.512 231.413 280.761 227.149 280.436C222.885 280.111 185.133 261.404 185.133 261.404" stroke="#263238" stroke-linecap="round" stroke-linejoin="round"/>
<path d="M225.42 256.308C228.809 257.312 231.817 259.315 234.052 262.054" stroke="#263238" stroke-linecap="round" stroke-linejoin="round"/>
</svg>
