<svg width="29" height="25" viewBox="0 0 28 26" fill="none" xmlns="http://www.w3.org/2000/svg">
<path d="M20.2362 0.253662C17.8169 0.253662 15.536 1.36642 14.0151 3.17459C12.4942 1.36642 10.2133 0.253662 7.79401 0.253662C3.50822 0.253662 0.19043 3.59159 0.19043 7.90343C0.19043 13.1884 4.89069 17.431 12.0103 23.9676L14.0151 25.7762L16.02 23.9676C23.1395 17.431 27.8398 13.1884 27.8398 7.90343C27.8398 3.59159 24.522 0.253662 20.2362 0.253662ZM14.8683 22.1377L14.5878 22.3951L14.0151 22.9117L13.4425 22.3952L13.1624 22.138C9.81135 19.0619 6.91727 16.4051 5.00408 14.0297C3.14592 11.7225 2.3173 9.83311 2.3173 7.90343C2.3173 6.38371 2.87707 4.98357 3.89352 3.961C4.90658 2.94183 6.29177 2.38054 7.79401 2.38054C9.531 2.38054 11.2482 3.18921 12.3874 4.54363L14.0151 6.47882L15.6428 4.54363C16.782 3.18921 18.4992 2.38054 20.2362 2.38054C21.7385 2.38054 23.1237 2.94183 24.1368 3.96094C25.1532 4.98357 25.7129 6.38365 25.7129 7.90343C25.7129 9.83311 24.8843 11.7224 23.0263 14.0296C21.1132 16.405 18.2192 19.0615 14.8683 22.1377Z" fill="black" fill-opacity="0.4"/>
</svg>
